<?xml version="1.0" encoding="utf-8"?>
<!-- Generator: Adobe Illustrator 18.1.0, SVG Export Plug-In . SVG Version: 6.00 Build 0)  -->
<svg version="1.1" id="Layer_1" xmlns="http://www.w3.org/2000/svg" xmlns:xlink="http://www.w3.org/1999/xlink" x="0px" y="0px"
	 viewBox="0 0 2000 2000" enable-background="new 0 0 2000 2000" xml:space="preserve">
<g id="Facebook_7_">
	<path fill="#010101" d="M1006.9,1980.7c-541.8,0-982.5-440.7-982.5-982.5S465.2,15.7,1006.9,15.7s982.5,440.7,982.5,982.5
		S1548.7,1980.7,1006.9,1980.7z M1006.9,90.3c-500.7,0-907.9,407.2-907.9,907.9s407.2,907.9,907.9,907.9s907.9-407.2,907.9-907.9
		S1507.6,90.3,1006.9,90.3z"/>
	<path id="Facebook_8_" fill="#010101" d="M1456.7,1387.3c0,27.9-22.3,50.2-50.2,50.2h-232.9V1084h118.5l18.1-138.1h-136.7V858
		c0-39.7,11.2-66.9,68.3-66.9h73.2V667.7c-12.6-1.4-55.8-5.6-106.7-5.6c-105.3,0-177.1,64.2-177.1,182v101.8H912.1V1084h119.2v354.2
		H593.5c-27.9,0-50.2-22.3-50.2-50.2V574.2c0-27.9,22.3-50.2,50.2-50.2h813c27.9,0,50.2,22.3,50.2,50.2L1456.7,1387.3L1456.7,1387.3
		z"/>
</g>
</svg>
