<?xml version="1.0" encoding="utf-8"?>
<!-- Generator: Adobe Illustrator 18.1.0, SVG Export Plug-In . SVG Version: 6.00 Build 0)  -->
<svg version="1.1" id="Layer_1" xmlns="http://www.w3.org/2000/svg" xmlns:xlink="http://www.w3.org/1999/xlink" x="0px" y="0px"
	 viewBox="0 0 2000 2000" enable-background="new 0 0 2000 2000" xml:space="preserve">
<g id="Google_x2B__6_">
	<path fill="#010101" d="M996,1979.5c-542.6,0-984-441.4-984-984s441.4-984,984-984s984,441.4,984,984S1538.6,1979.5,996,1979.5z
		 M996,86.3c-501.4,0-909.3,407.8-909.3,909.3s407.8,909.3,909.3,909.3s909.3-407.8,909.3-909.3S1497.4,86.3,996,86.3z"/>
	<path fill="#010101" d="M804.6,914.5v127.1c0,0,122.9,0,172.5,0c-27.2,82.4-69.1,127.1-172.5,127.1c-104.8,0-186.5-85.2-186.5-190
		s81.7-190,186.5-190c55.2,0,91.5,19.6,124.3,46.8c26.5-26.5,23.7-30,90.8-93.6c-56.6-51.7-132-83.1-215.1-83.1
		c-176.7,0-319.8,143.2-319.8,319.8s143.2,319.8,319.8,319.8c264,0,328.2-230.5,306.6-383.4H804.6V914.5z"/>
	<polygon fill="#010101" points="1380.1,920.8 1380.1,809.8 1301.2,809.8 1301.2,920.8 1187.3,920.8 1187.3,999.7 1301.2,999.7 
		1301.2,1113.5 1380.1,1113.5 1380.1,999.7 1491.1,999.7 1491.1,920.8 	"/>
</g>
</svg>
