<?xml version="1.0" encoding="utf-8"?>
<!-- Generator: Adobe Illustrator 18.1.0, SVG Export Plug-In . SVG Version: 6.00 Build 0)  -->
<svg version="1.1" id="Layer_1" xmlns="http://www.w3.org/2000/svg" xmlns:xlink="http://www.w3.org/1999/xlink" x="0px" y="0px"
	 viewBox="0 0 2000 2000" enable-background="new 0 0 2000 2000" xml:space="preserve">
<g id="Instagram_8_">
	<path id="Instagram_9_" fill="#010101" d="M1370.9,530.7H668.4c-60.5,0-109.8,49.3-109.8,109.1V1343c0,60.5,49.3,109.1,109.8,109.1
		h702.5c60.5,0,109.8-49.3,109.8-109.1V639.8C1480.7,579.2,1431.4,530.7,1370.9,530.7z M1221.7,674.3c0-16.2,12.7-28.9,28.9-28.9
		h86.6c16.2,0,28.9,12.7,28.9,28.9v86.6c0,16.2-12.7,28.9-28.9,28.9h-86.6c-16.2,0-28.9-12.7-28.9-28.9V674.3z M1021,815.7
		c97.8,0,177.4,78.8,177.4,176.7c0,97.8-79.5,176.7-177.4,176.7s-177.4-78.8-177.4-176.7C843.6,894.6,923.2,815.7,1021,815.7z
		 M1394.1,1336.7c0,16.2-12.7,28.9-28.9,28.9H674c-16.2,0-28.9-12.7-28.9-28.9V904.4h115.4c-14.8,21.8-20.4,61.9-20.4,87.3
		c0,154.2,126,279.5,280.2,279.5c154.9,0,280.2-125.3,280.2-279.5c0-25.3-3.5-65.5-22.5-87.3h115.4v432.2H1394.1z"/>
	<path fill="#010101" d="M995.7,1985.7c-547,0-991.8-444.9-991.8-991.8S448.7,2,995.7,2s991.8,444.9,991.8,991.8
		S1542.7,1985.7,995.7,1985.7z M995.7,77.3c-505.4,0-916.5,411.1-916.5,916.5s411.1,916.5,916.5,916.5s916.5-411.1,916.5-916.5
		S1501.1,77.3,995.7,77.3z"/>
</g>
</svg>
