<?xml version="1.0" encoding="utf-8"?>
<!-- Generator: Adobe Illustrator 18.1.1, SVG Export Plug-In . SVG Version: 6.00 Build 0)  -->
<svg version="1.1" id="Layer_1" xmlns="http://www.w3.org/2000/svg" xmlns:xlink="http://www.w3.org/1999/xlink" x="0px" y="0px"
	 viewBox="0 0 2000 2000" enable-background="new 0 0 2000 2000" xml:space="preserve">
<circle fill="#010101" cx="1000" cy="293.5" r="66.2"/>
<path fill="#010101" d="M1000,17.5c-182.9,0-331.2,148.3-331.2,331.2v551.9c0,182.9,148.3,331.2,331.2,331.2
	s331.2-148.3,331.2-331.2V348.7C1331.2,165.8,1182.9,17.5,1000,17.5z M1287,900.6c0,158.3-128.8,287.1-287,287.1
	s-287-128.8-287-287.1V348.7c0-158.3,128.8-287.1,287-287.1s287,128.8,287,287.1V900.6z"/>
<path fill="#010101" d="M1293.5,1326.6L1000,1620.1l-293.5-293.5c-8.6-8.6-22.6-8.6-31.2,0c-8.6,8.6-8.6,22.6,0,31.2l309.1,309.1
	c4.3,4.3,10,6.5,15.6,6.5c5.7,0,11.3-2.2,15.6-6.5l309.1-309.1c8.6-8.6,8.6-22.6,0-31.2C1316.1,1318,1302.1,1318,1293.5,1326.6z"/>
<path fill="#010101" d="M1293.5,1635.7L1000,1929.2l-293.5-293.5c-8.6-8.6-22.6-8.6-31.2,0c-8.6,8.6-8.6,22.6,0,31.2L984.4,1976
	c4.3,4.3,10,6.5,15.6,6.5c5.7,0,11.3-2.2,15.6-6.5l309.1-309.1c8.6-8.6,8.6-22.6,0-31.2C1316.1,1627.1,1302.1,1627.1,1293.5,1635.7z
	"/>
</svg>
