<?xml version="1.0" encoding="utf-8"?>
<!-- Generator: Adobe Illustrator 18.1.0, SVG Export Plug-In . SVG Version: 6.00 Build 0)  -->
<svg version="1.1" id="Layer_1" xmlns="http://www.w3.org/2000/svg" xmlns:xlink="http://www.w3.org/1999/xlink" x="0px" y="0px"
	 viewBox="0 0 2000 2000" enable-background="new 0 0 2000 2000" xml:space="preserve">
<g id="Twitter_8_">
	<path id="Twitter_9_" fill="#010101" d="M1429.4,619.1c-36.8,22.2-77.7,38.9-120.8,47.2c-34.7-38.2-84-61.8-138.8-61.8
		c-104.8,0-190.2,87.5-190.2,195c0,15.3,1.4,29.8,4.9,44.4c-158.3-8.3-298.5-86.1-392.9-204.1C575,669.1,566,702.4,566,738.5
		c0,68,33.3,127.7,84.7,162.4c-31.2-0.7-60.4-9.7-86.1-24.3v2.1c0,94.4,65.9,173.5,152.7,191.6c-16,4.9-32.6,6.9-50,6.9
		c-12.5,0-24.3-1.4-36.1-3.5c24.3,77.7,94.4,134,177.7,135.3c-65.2,52.8-147.1,83.3-236.7,83.3c-15.3,0-30.5-0.7-45.1-2.8
		c84,55.5,184.6,87.5,292.2,87.5c350.5,0,542.1-297.8,542.1-555.3c0-8.3,0-16.7-0.7-25c37.5-27.8,69.4-61.8,95.1-101.3
		c-34,15.3-70.8,26.4-109.7,30.5C1385,703.1,1414.8,664.2,1429.4,619.1z"/>
	<path fill="#010101" d="M1002.6,1974.7c-539.3,0-978-438.7-978-978s438.7-978,978-978s978,438.7,978,978
		S1541.9,1974.7,1002.6,1974.7z M1002.6,93C504.2,93,98.8,498.3,98.8,996.7s405.4,903.7,903.7,903.7s903.7-405.4,903.7-903.7
		S1500.9,93,1002.6,93z"/>
</g>
</svg>
